<?xml version="1.0" encoding="UTF-8" standalone="no"?>
<svg
   xmlns:dc="http://purl.org/dc/elements/1.1/"
   xmlns:cc="http://creativecommons.org/ns#"
   xmlns:rdf="http://www.w3.org/1999/02/22-rdf-syntax-ns#"
   xmlns:svg="http://www.w3.org/2000/svg"
   xmlns="http://www.w3.org/2000/svg"
   xmlns:sodipodi="http://sodipodi.sourceforge.net/DTD/sodipodi-0.dtd"
   xmlns:inkscape="http://www.inkscape.org/namespaces/inkscape"
   id="svg"
   version="1.1"
   width="400"
   height="400"
   viewBox="0 0 400 400"
   sodipodi:docname="avd.svg"
   inkscape:version="0.92.3 (2405546, 2018-03-11)">
  <metadata
     id="metadata13">
    <rdf:RDF>
      <cc:Work
         rdf:about="">
        <dc:format>image/svg+xml</dc:format>
        <dc:type
           rdf:resource="http://purl.org/dc/dcmitype/StillImage" />
      </cc:Work>
    </rdf:RDF>
  </metadata>
  <defs
     id="defs11" />
  <sodipodi:namedview
     pagecolor="#ffffff"
     bordercolor="#666666"
     borderopacity="1"
     objecttolerance="10"
     gridtolerance="10"
     guidetolerance="10"
     inkscape:pageopacity="0"
     inkscape:pageshadow="2"
     inkscape:window-width="1920"
     inkscape:window-height="1023"
     id="namedview9"
     showgrid="false"
     inkscape:zoom="1.4142136"
     inkscape:cx="304.11402"
     inkscape:cy="307.59567"
     inkscape:window-x="67"
     inkscape:window-y="27"
     inkscape:window-maximized="0"
     inkscape:current-layer="svg" />
  <g
     id="svgg">
    <path
       id="path0"
       d="M142.414 143.574 C 141.776 144.767,141.841 332.481,142.480 333.120 C 143.178 333.818,256.822 333.818,257.520 333.120 C 258.219 332.421,258.219 143.979,257.520 143.280 C 256.565 142.325,142.927 142.615,142.414 143.574 "
       stroke="none"
       fill="#ebebeb"
       fill-rule="evenodd" />
    <path
       id="path1"
       d="M137.800 109.009 C 136.920 109.300,135.750 109.554,135.200 109.573 C 134.650 109.592,133.300 110.050,132.200 110.591 C 131.100 111.132,129.975 111.581,129.700 111.587 C 129.425 111.594,129.200 111.777,129.200 111.992 C 129.200 112.208,128.769 112.493,128.243 112.625 C 126.351 113.100,121.088 119.107,119.269 122.871 C 116.389 128.827,116.584 120.475,116.757 230.220 C 116.897 319.368,116.849 329.985,116.296 331.220 C 115.006 334.106,114.800 335.490,114.800 341.297 C 114.800 346.825,114.857 347.290,115.557 347.473 C 116.188 347.638,116.340 348.137,116.472 350.479 C 116.589 352.536,116.814 353.421,117.316 353.788 C 117.692 354.063,118.000 354.583,118.000 354.944 C 118.000 355.333,118.325 355.600,118.800 355.600 C 119.448 355.600,119.600 355.867,119.600 357.000 C 119.600 358.133,119.752 358.400,120.400 358.400 C 120.933 358.400,121.200 358.667,121.200 359.200 C 121.200 359.733,121.467 360.000,122.000 360.000 C 122.533 360.000,122.800 360.267,122.800 360.800 C 122.800 361.333,123.067 361.600,123.600 361.600 C 124.133 361.600,124.400 361.867,124.400 362.400 C 124.400 362.917,124.667 363.200,125.153 363.200 C 125.570 363.200,126.000 363.557,126.116 364.000 C 126.276 364.613,126.662 364.800,127.763 364.800 C 128.933 364.800,129.200 364.948,129.200 365.600 C 129.200 366.303,129.467 366.400,131.400 366.400 C 133.333 366.400,133.600 366.497,133.600 367.200 C 133.600 367.997,133.867 368.000,200.000 368.000 C 266.133 368.000,266.400 367.997,266.400 367.200 C 266.400 366.498,266.667 366.400,268.573 366.400 C 270.395 366.400,270.787 366.271,271.000 365.600 C 271.180 365.032,271.605 364.800,272.464 364.800 C 273.338 364.800,273.733 364.578,273.884 364.000 C 274.000 363.557,274.430 363.200,274.847 363.200 C 275.333 363.200,275.600 362.917,275.600 362.400 C 275.600 361.867,275.867 361.600,276.400 361.600 C 276.933 361.600,277.200 361.333,277.200 360.800 C 277.200 360.267,277.467 360.000,278.000 360.000 C 278.533 360.000,278.800 359.733,278.800 359.200 C 278.800 358.667,279.067 358.400,279.600 358.400 C 280.248 358.400,280.400 358.133,280.400 357.000 C 280.400 355.867,280.552 355.600,281.200 355.600 C 281.697 355.600,282.000 355.333,282.000 354.896 C 282.000 354.509,282.360 353.968,282.800 353.693 C 283.476 353.271,283.600 352.760,283.600 350.397 C 283.600 347.867,283.676 347.600,284.400 347.600 C 285.166 347.600,285.200 347.333,285.200 341.400 L 285.200 335.200 293.100 335.140 L 301.000 335.080 294.800 334.710 C 291.390 334.507,288.540 334.174,288.467 333.970 C 288.393 333.767,288.070 333.600,287.749 333.600 C 287.415 333.600,287.215 333.301,287.282 332.900 C 287.371 332.372,287.081 332.169,286.101 332.075 C 285.259 331.994,284.637 331.642,284.335 331.078 C 283.778 330.037,284.126 228.909,284.842 183.935 C 285.266 157.284,285.177 132.588,284.650 130.347 C 284.513 129.768,284.132 128.778,283.803 128.147 C 283.474 127.516,283.204 126.513,283.202 125.918 C 283.191 121.074,272.056 111.254,264.357 109.299 C 260.839 108.406,140.457 108.130,137.800 109.009 M257.840 141.506 C 259.200 142.414,259.200 142.382,259.200 238.374 C 259.200 332.667,259.196 333.204,258.400 334.000 C 257.607 334.793,257.067 334.800,200.029 334.800 L 142.458 334.800 141.627 333.743 L 140.795 332.686 140.898 237.785 C 140.998 145.099,141.018 142.864,141.762 142.042 L 142.524 141.200 199.962 141.206 C 231.553 141.209,257.598 141.344,257.840 141.506 M21.200 326.338 C 21.200 326.829,21.456 327.091,21.900 327.056 C 22.338 327.021,22.646 327.328,22.725 327.878 C 22.806 328.447,23.050 328.679,23.419 328.537 C 23.779 328.399,24.135 328.702,24.385 329.359 C 24.828 330.527,26.017 330.782,25.968 329.700 C 25.950 329.282,25.856 329.201,25.735 329.500 C 25.624 329.775,25.368 330.000,25.167 330.000 C 24.965 330.000,24.799 329.775,24.798 329.500 C 24.798 329.225,23.988 328.227,22.998 327.282 C 21.546 325.895,21.200 325.713,21.200 326.338 "
       stroke="none"
       fill="#646464"
       fill-rule="evenodd" />
    <path
       id="path2"
       d="m 35.6,65.2 c -0.485,0.314 -0.428,0.389 0.3,0.394 0.495,0.003 0.9,-0.174 0.9,-0.394 0,-0.501 -0.424,-0.501 -1.2,0 m 327.632,-0.124 c -0.05,0.743 0.787,1.07 1.303,0.51 0.363,-0.393 0.317,-0.452 -0.209,-0.267 -0.371,0.13 -0.762,0.021 -0.869,-0.241 -0.149,-0.369 -0.201,-0.369 -0.225,-0.002 M 36.811,68.693 c -0.543,0.102 -1.349,0.438 -1.789,0.746 -0.44,0.309 -1.213,0.561 -1.717,0.561 -0.504,0 -1.916,0.585 -3.137,1.3 -1.22,0.715 -2.543,1.485 -2.94,1.71 -1.015,0.577 -5.628,5.196 -5.628,5.635 0,0.199 -0.344,0.577 -0.764,0.84 -0.42,0.262 -0.881,1.01 -1.024,1.663 -0.144,0.652 -0.497,1.276 -0.786,1.387 -0.289,0.11 -0.646,0.847 -0.794,1.637 -0.246,1.31 -0.344,1.396 -1.109,0.987 -0.763,-0.409 -0.817,-0.364 -0.587,0.496 0.139,0.52 0.276,1.575 0.305,2.345 0.033,0.881 0.127,1.104 0.254,0.602 0.111,-0.439 0.54,-1.229 0.953,-1.754 0.414,-0.526 0.752,-1.369 0.752,-1.873 0,-0.505 0.277,-1.194 0.615,-1.532 0.338,-0.338 0.874,-1.237 1.192,-1.998 0.721,-1.727 4.389,-5.726 6.673,-7.275 0.946,-0.642 1.81,-1.268 1.92,-1.39 1.172,-1.306 6.813,-3.05 11.6,-3.587 3.954,-0.443 314.972,-0.445 318.6,-0.001 5.938,0.726 8.988,1.812 13.049,4.65 4.019,2.808 8.204,8.268 8.934,11.658 0.154,0.715 0.429,1.3 0.61,1.3 0.181,0 0.561,0.585 0.846,1.3 l 0.516,1.3 0.149,-1.538 c 0.14,-1.442 0.193,-1.498 0.856,-0.898 0.594,0.537 0.707,0.546 0.707,0.055 0,-0.321 -0.181,-0.472 -0.402,-0.336 -0.236,0.146 -0.299,-0.017 -0.153,-0.397 0.167,-0.437 0.073,-0.578 -0.292,-0.438 -0.296,0.113 -0.675,-0.014 -0.841,-0.283 -0.206,-0.333 -0.136,-0.386 0.221,-0.165 0.33,0.204 0.427,0.167 0.261,-0.101 -0.144,-0.233 -0.604,-0.334 -1.022,-0.225 -0.6,0.157 -0.82,-0.082 -1.046,-1.138 -0.157,-0.735 -0.625,-1.658 -1.04,-2.052 C 380.339,81.491 380,80.9 380,80.571 380,79.95 373.587,73.2 372.998,73.2 c -0.184,0 -0.628,-0.265 -0.985,-0.588 C 371.03,71.722 367.649,70 366.879,69.998 366.505,69.996 365.66,69.681 365,69.298 363.853,68.631 40.306,68.035 36.811,68.693 M 22.555,72.7 c -1.124,1.155 -1.927,2.1 -1.784,2.1 0.354,0 4.225,-3.954 4.005,-4.091 -0.097,-0.06 -1.096,0.836 -2.221,1.991 m -7.476,13.057 c -0.164,0.417 -0.204,0.852 -0.088,0.967 0.364,0.365 0.685,-0.233 0.533,-0.993 -0.141,-0.696 -0.162,-0.695 -0.445,0.026 m 368.167,5.676 c -0.053,1.419 0.2,1.801 0.993,1.497 0.734,-0.282 0.726,-1.33 -0.01,-1.33 -0.314,0 -0.653,-0.315 -0.753,-0.7 -0.101,-0.385 -0.204,-0.145 -0.23,0.533 M 15.871,91.481 c -0.451,0.117 -0.642,0.418 -0.5,0.787 0.126,0.328 0.229,0.673 0.229,0.765 0,0.092 0.27,0.167 0.6,0.167 0.373,0 0.6,-0.378 0.6,-1 0,-0.55 -0.045,-0.979 -0.1,-0.954 -0.055,0.026 -0.428,0.132 -0.829,0.235 M 15.9,200.422 c -1.088,0.649 -1.088,105.46 0,105.861 1.002,0.37 1.287,0.926 1.294,2.523 0.003,0.773 0.353,2.054 0.778,2.846 0.424,0.792 0.893,2.088 1.042,2.881 0.149,0.793 0.611,1.835 1.028,2.316 0.417,0.48 0.761,1.161 0.764,1.512 0.003,0.352 0.678,1.393 1.5,2.314 0.822,0.921 1.942,2.226 2.49,2.9 0.547,0.674 1.228,1.225 1.512,1.225 0.284,0 0.618,0.263 0.742,0.585 0.123,0.321 0.566,0.693 0.985,0.826 0.418,0.133 0.986,0.464 1.263,0.736 1.434,1.412 4.971,2.541 10.902,3.479 1.421,0.225 17.161,0.338 38.6,0.277 l 36.2,-0.103 0.101,-64.779 c 0.07,-44.942 -0.028,-64.908 -0.32,-65.2 -0.588,-0.589 -97.899,-0.784 -98.881,-0.199 m 268.74062,-1.23156 c -0.7021,53.91011 -0.25414,81.97281 0.13568,131.57499 L 311.7,330.583 c 9.564,0.42 46.119,0.027 48.7,-0.524 1.21,-0.258 3.1,-0.579 4.2,-0.713 1.1,-0.134 2.27,-0.478 2.6,-0.764 0.33,-0.286 1.082,-0.64 1.671,-0.787 0.588,-0.147 1.381,-0.611 1.762,-1.031 0.38,-0.42 0.939,-0.764 1.242,-0.764 0.302,0 0.654,-0.27 0.78,-0.6 0.127,-0.33 0.427,-0.6 0.667,-0.6 0.472,0 4.278,-3.9 4.278,-4.383 0,-0.161 0.36,-0.619 0.8,-1.017 0.44,-0.398 0.8,-1.032 0.8,-1.408 0,-0.376 0.354,-1.134 0.787,-1.684 0.432,-0.55 0.905,-1.741 1.05,-2.647 0.144,-0.905 0.51,-1.851 0.813,-2.102 0.302,-0.252 0.551,-0.93 0.552,-1.508 0.004,-1.913 0.792,-3.995 1.61,-4.255 0.845,-0.268 1.277,-21.94 0.443,-22.263 -0.642,-0.248 -0.85,-59.881 -0.21,-60.521 0.446,-0.446 0.805,-2.97744 0.805,-11.81044 v -10.982 l -0.9,-0.241"
       inkscape:connector-curvature="0"
       style="fill:#8cc44c;fill-rule:evenodd;stroke:none"
       sodipodi:nodetypes="ccsccccccccsccscccccccccsscccccccsccccscccccccccsscccccsccccccccsccccsssccccccsccscsccccsccccccccssccscssssccccccsscc" />
    <path
       id="path3"
       d="m 120.333,65.1 c 44.293,0.056 116.653,0.056 160.8,0 44.147,-0.056 7.907,-0.102 -80.533,-0.102 -88.44,0 -124.56,0.046 -80.267,0.102 M 40.4,69.22 c -4.375,0.496 -10.076,2.308 -11.2,3.56 -0.11,0.122 -0.974,0.748 -1.92,1.39 -2.284,1.549 -5.952,5.548 -6.673,7.275 -0.318,0.761 -0.854,1.66 -1.192,1.998 -0.338,0.338 -0.615,1.027 -0.615,1.532 0,0.504 -0.367,1.384 -0.816,1.955 -0.743,0.944 -0.972,1.993 -1.13,5.17 -0.066,1.346 -1.154,1.498 -1.431,0.2 -0.105,-0.495 -0.269,-1.26 -0.363,-1.7 -0.094,-0.44 -0.188,49.371 -0.208,110.692 -0.037,108.519 0.018,114.006 1.147,113.308 0.356,-0.22 0.593,1.21 0.495,2.983 -0.049,0.88 0.694,2.071 1.126,1.805 0.209,-0.13 0.38,0.244 0.38,0.831 0,0.586 0.46,1.612 1.021,2.279 0.562,0.668 0.928,1.459 0.813,1.758 -0.197,0.514 0.272,0.738 1.166,0.558 0.22,-0.044 0.274,0.045 0.12,0.2 -0.154,0.154 0.611,1.108 1.7,2.12 1.089,1.012 1.98,2.071 1.98,2.353 0,0.658 0.671,0.667 0.935,0.013 0.121,-0.299 0.215,-0.218 0.233,0.2 0.018,0.389 0.344,0.7 0.736,0.7 0.387,0 0.921,0.347 1.186,0.772 0.265,0.425 0.944,0.83 1.508,0.9 0.565,0.07 1.008,0.301 0.985,0.512 -0.061,0.553 1.17,0.955 3.021,0.988 1.146,0.02 1.745,0.254 2.1,0.822 0.49,0.785 0.969,0.794 39.963,0.7 l 39.466,-0.094 0.37,-1.2 c 0.203,-0.66 0.648,-1.821 0.99,-2.58 0.557,-1.239 0.605,-11.596 0.464,-101 -0.173,-109.745 -0.368,-101.393 2.512,-107.349 1.819,-3.764 7.082,-9.771 8.974,-10.246 0.526,-0.132 0.957,-0.417 0.957,-0.633 0,-0.215 0.228,-0.392 0.506,-0.392 0.278,0 1.17,-0.356 1.981,-0.791 4.273,-2.29 1.764,-2.209 68.513,-2.209 68.465,0 63.66,-0.198 69.736,2.879 5.463,2.766 13.259,11.252 13.266,14.439 0.002,0.595 0.272,1.598 0.601,2.229 0.329,0.631 0.71,1.621 0.847,2.2 0.527,2.241 0.616,26.937 0.192,53.588 -0.716,44.974 -1.064,146.102 -0.507,147.143 0.302,0.564 0.924,0.916 1.766,0.997 0.98,0.094 1.27,0.297 1.181,0.825 -0.067,0.401 0.133,0.7 0.467,0.7 0.321,0 0.644,0.159 0.718,0.352 0.422,1.118 74.666,1.928 75.349,0.823 0.131,-0.214 0.437,-0.266 0.68,-0.116 0.283,0.175 0.349,0.035 0.185,-0.393 -0.212,-0.551 0.035,-0.676 1.432,-0.727 0.928,-0.033 1.867,-0.103 2.087,-0.154 0.22,-0.051 0.644,-0.113 0.943,-0.139 0.301,-0.025 0.444,-0.303 0.321,-0.624 -0.168,-0.437 0.187,-0.608 1.457,-0.7 1.154,-0.084 1.679,-0.306 1.679,-0.709 0,-0.331 0.628,-0.768 1.436,-1 0.856,-0.246 1.368,-0.615 1.267,-0.913 -0.093,-0.275 0.007,-0.5 0.224,-0.5 0.512,0 3.273,-2.761 3.273,-3.273 0,-0.217 0.225,-0.317 0.5,-0.224 0.298,0.101 0.667,-0.411 0.913,-1.267 0.232,-0.808 0.669,-1.436 1,-1.436 0.403,0 0.625,-0.525 0.709,-1.679 0.092,-1.27 0.263,-1.625 0.7,-1.457 0.321,0.123 0.599,-0.02 0.624,-0.321 0.026,-0.299 0.088,-0.723 0.139,-0.943 0.051,-0.22 0.121,-1.159 0.154,-2.087 0.051,-1.397 0.176,-1.644 0.727,-1.432 0.428,0.164 0.568,0.098 0.393,-0.185 -0.15,-0.243 -0.092,-0.552 0.129,-0.689 0.267,-0.164 0.385,-37.602 0.353,-111.727 -0.026,-61.314 -0.131,-111.03 -0.234,-110.48 -0.426,2.275 -1.707,1.852 -1.707,-0.564 0,-1.859 -0.677,-4.236 -1.207,-4.236 -0.181,0 -0.456,-0.585 -0.61,-1.3 -0.73,-3.39 -4.915,-8.85 -8.934,-11.658 -4.061,-2.838 -7.111,-3.924 -13.049,-4.65 -3.402,-0.416 -315.324,-0.388 -319,0.028 M 24.959,70.067 C 24.845,70.25 24.954,70.4 25.2,70.4 c 0.246,0 0.336,0.18 0.2,0.4 -0.136,0.22 -0.153,0.4 -0.038,0.4 0.116,0 0.386,-0.33 0.602,-0.733 0.405,-0.756 -0.55,-1.136 -1.005,-0.4 m 349.319,0.311 c 0.16,0.612 0.313,0.676 0.719,0.3 0.377,-0.35 0.393,-0.556 0.059,-0.772 -0.758,-0.488 -0.992,-0.346 -0.778,0.472 m 1.608,1.224 c 0.695,0.677 1.314,0.687 1.314,0.021 0,-0.181 -0.457,-0.417 -1.014,-0.524 -0.971,-0.185 -0.984,-0.163 -0.3,0.503 m 1.798,1.756 c 0.532,0.576 1.116,0.481 1.116,-0.182 0,-0.207 -0.367,-0.376 -0.816,-0.376 -0.677,0 -0.728,0.094 -0.3,0.558 m 1.116,1.655 c 0,0.336 0.278,0.719 0.617,0.849 0.904,0.347 0.952,0.036 0.116,-0.762 -0.62,-0.592 -0.733,-0.606 -0.733,-0.087 M 20.001,74.8 c -0.399,1.284 -0.293,1.571 0.435,1.181 0.42,-0.225 0.764,-0.503 0.764,-0.619 0,-0.115 -0.165,-0.107 -0.366,0.017 -0.201,0.124 -0.457,0 -0.568,-0.277 C 20.154,74.826 20.035,74.69 20.001,74.8 m 94.78,125.821 c 0.292,0.292 0.39,20.258 0.32,65.2 L 115,330.6 78.8,330.703 c -21.439,0.061 -37.179,-0.052 -38.6,-0.277 -5.931,-0.938 -9.468,-2.067 -10.902,-3.479 -0.277,-0.272 -0.845,-0.603 -1.263,-0.736 -0.419,-0.133 -0.862,-0.505 -0.985,-0.826 -0.124,-0.322 -0.458,-0.585 -0.742,-0.585 -0.284,0 -0.965,-0.551 -1.512,-1.225 -0.548,-0.674 -1.668,-1.979 -2.49,-2.9 -0.822,-0.921 -1.497,-1.962 -1.5,-2.314 -0.003,-0.351 -0.347,-1.032 -0.764,-1.512 -0.417,-0.481 -0.879,-1.523 -1.028,-2.316 -0.149,-0.793 -0.618,-2.089 -1.042,-2.881 -0.425,-0.792 -0.775,-2.073 -0.778,-2.846 -0.007,-1.597 -0.292,-2.153 -1.294,-2.523 -1.088,-0.401 -1.088,-105.212 0,-105.861 0.982,-0.585 98.293,-0.39 98.881,0.199 m 269.119,-0.369 0.9,0.241 v 10.982 c 0,8.833 -0.109,11.091 -0.555,11.537 -0.64,0.64 -0.432,60.273 0.21,60.521 0.834,0.323 0.402,21.995 -0.443,22.263 -0.818,0.26 -1.606,2.342 -1.61,4.255 -10e-4,0.578 -0.25,1.256 -0.552,1.508 -0.303,0.251 -0.669,1.197 -0.813,2.102 -0.145,0.906 -0.618,2.097 -1.05,2.647 -0.433,0.55 -0.787,1.308 -0.787,1.684 0,0.376 -0.36,1.01 -0.8,1.408 -0.44,0.398 -0.8,0.856 -0.8,1.017 0,0.483 -3.806,4.383 -4.278,4.383 -0.24,0 -0.54,0.27 -0.667,0.6 -0.126,0.33 -0.478,0.6 -0.78,0.6 -0.303,0 -0.862,0.344 -1.242,0.764 -0.381,0.42 -1.174,0.884 -1.762,1.031 -0.589,0.147 -1.341,0.501 -1.671,0.787 -0.33,0.286 -1.5,0.63 -2.6,0.764 -1.1,0.134 -2.99,0.455 -4.2,0.713 -2.581,0.551 -39.136,0.944 -48.7,0.524 l -26.9237,0.18243 c 0.14559,-86.40912 -1.25856,-60.71126 -0.13568,-130.63749 1.379,-0.4 97.84938,-0.25394 99.25938,0.12453"
       inkscape:connector-curvature="0"
       style="fill:#7db346;fill-rule:evenodd;stroke:none"
       sodipodi:nodetypes="csscccccsscccsccccsccccssccssccccccccsccsscsccscccccscccccscccsccssccscccsccccccsscccccssscccccccscccssccccccssscccccsccccscsccscccccccssccccccsssscsccssccccc" />
    <path
       id="path4"
       d="M39.536 64.997 C 39.440 65.094,38.676 65.257,37.840 65.361 C 37.003 65.465,36.015 65.824,35.644 66.160 C 35.270 66.499,34.043 66.821,32.885 66.885 C 31.625 66.955,30.800 67.185,30.800 67.468 C 30.800 67.726,30.248 68.058,29.573 68.206 C 28.898 68.354,28.249 68.728,28.130 69.038 C 28.012 69.347,27.671 69.600,27.373 69.600 C 27.075 69.600,26.438 70.005,25.957 70.500 C 25.476 70.995,25.224 71.130,25.397 70.800 C 25.570 70.470,25.021 70.920,24.177 71.800 C 23.333 72.680,22.093 73.913,21.421 74.540 C 20.750 75.167,20.470 75.546,20.800 75.381 C 21.130 75.217,20.995 75.476,20.500 75.957 C 20.005 76.438,19.600 77.075,19.600 77.373 C 19.600 77.671,19.347 78.012,19.038 78.130 C 18.728 78.249,18.354 78.898,18.206 79.573 C 18.058 80.248,17.726 80.800,17.468 80.800 C 16.718 80.800,16.629 85.049,17.373 85.334 C 17.810 85.502,18.042 85.183,18.236 84.150 C 18.382 83.372,18.737 82.645,19.026 82.535 C 19.315 82.424,19.668 81.800,19.812 81.148 C 19.955 80.495,20.416 79.747,20.836 79.485 C 21.256 79.222,21.600 78.844,21.600 78.645 C 21.600 78.206,26.213 73.587,27.228 73.010 C 27.625 72.785,28.948 72.015,30.168 71.300 C 31.389 70.585,32.801 70.000,33.305 70.000 C 33.809 70.000,34.667 69.685,35.211 69.300 C 36.747 68.213,363.130 68.211,365.000 69.298 C 365.660 69.681,366.505 69.996,366.879 69.998 C 367.649 70.000,371.030 71.722,372.013 72.612 C 372.370 72.935,372.814 73.200,372.998 73.200 C 373.587 73.200,380.000 79.950,380.000 80.571 C 380.000 80.900,380.339 81.491,380.753 81.884 C 381.168 82.278,381.623 83.140,381.765 83.800 C 381.921 84.528,382.412 85.182,383.012 85.463 C 383.657 85.764,383.910 85.777,383.738 85.500 C 383.594 85.266,383.405 84.262,383.320 83.269 C 383.235 82.275,382.901 81.268,382.578 81.031 C 382.255 80.794,381.912 80.190,381.816 79.690 C 381.720 79.189,381.275 78.313,380.826 77.743 C 380.378 77.173,380.096 76.568,380.201 76.398 C 380.305 76.229,380.033 75.997,379.596 75.883 C 379.121 75.759,378.800 75.337,378.800 74.837 C 378.800 74.338,378.543 74.000,378.163 74.000 C 377.812 74.000,377.431 73.640,377.316 73.200 C 377.201 72.760,376.864 72.400,376.567 72.400 C 376.271 72.400,375.833 72.035,375.594 71.589 C 375.355 71.143,375.002 70.875,374.809 70.995 C 374.616 71.114,374.345 70.858,374.208 70.426 C 374.058 69.952,373.731 69.728,373.382 69.862 C 373.021 70.001,372.675 69.731,372.457 69.142 C 372.265 68.624,371.993 68.248,371.852 68.307 C 371.318 68.531,369.382 67.843,368.967 67.282 C 368.686 66.901,367.879 66.709,366.667 66.733 C 365.640 66.754,364.800 66.597,364.800 66.385 C 364.800 66.173,364.519 66.000,364.176 66.000 C 363.833 66.000,363.663 65.821,363.799 65.602 C 363.962 65.338,309.460 65.203,202.183 65.201 C 113.158 65.199,40.183 65.113,40.016 65.010 C 39.849 64.906,39.633 64.901,39.536 64.997 M15.797 86.005 C 15.256 86.880,14.921 91.055,15.357 91.490 C 16.169 92.302,16.800 91.053,16.800 88.636 C 16.800 86.193,16.373 85.073,15.797 86.005 M383.550 87.867 C 383.425 91.188,383.502 91.600,384.243 91.600 C 384.644 91.600,384.801 91.379,384.660 91.013 C 384.536 90.690,384.562 90.347,384.718 90.251 C 384.960 90.101,385.011 87.781,384.783 87.200 C 384.740 87.090,384.717 86.895,384.730 86.767 C 384.744 86.638,384.496 86.533,384.178 86.533 C 383.800 86.533,383.583 86.994,383.550 87.867 M141.762 142.042 C 141.018 142.864,140.998 145.099,140.898 237.785 L 140.795 332.686 141.627 333.743 L 142.458 334.800 200.029 334.800 C 257.067 334.800,257.607 334.793,258.400 334.000 C 259.196 333.204,259.200 332.667,259.200 238.374 C 259.200 142.382,259.200 142.414,257.840 141.506 C 257.598 141.344,231.553 141.209,199.962 141.206 L 142.524 141.200 141.762 142.042 M257.520 143.280 C 258.219 143.979,258.219 332.421,257.520 333.120 C 256.822 333.818,143.178 333.818,142.480 333.120 C 141.841 332.481,141.776 144.767,142.414 143.574 C 142.927 142.615,256.565 142.325,257.520 143.280 "
       stroke="none"
       fill="#94bd71"
       fill-rule="evenodd" />
  </g>
</svg>
